# xmcd
#
# Track frame offsets: 
#        150
#        17740
#        32242
#        50687
#        77646
#        95608
#        114897
#        127247
#        146119
#        169039
#        189273
#
# Disc length: 2760 seconds
#
# Revision: 0
# Processed by: cddbd v1.5.2PL0 Copyright (c) Steve Scherf et al.
# Submitted via: ExactAudioCopy v1.3
#
DISCID=930ac60b
DTITLE=Vargas and Jagger - Move On
DYEAR=2019
DGENRE=Blues
TTITLE0=Where Do We Go From Here?
TTITLE1=Chicken Dinner
TTITLE2=Blues For Love
TTITLE3=Sympathy For The Devil versus Muйvete
TTITLE4=Someone New
TTITLE5=Falling Down
TTITLE6=Somewhere In The Shadows
TTITLE7=Funk Hell
TTITLE8=Bleeding Heart
TTITLE9=Perfect Day
TTITLE10=Iґll Take You There 
EXTD=
EXTT0=
EXTT1=
EXTT2=
EXTT3=
EXTT4=
EXTT5=
EXTT6=
EXTT7=
EXTT8=
EXTT9=
EXTT10=
PLAYORDER=
